<mxfile host="www.draw.io" modified="2020-01-20T09:42:39.377Z" agent="Mozilla/5.0 (Windows NT 10.0; Win64; x64; rv:73.0) Gecko/20100101 Firefox/73.0" etag="o-Jl04IxNW3tryUUTZe4" version="12.5.5" type="github">
  <diagram name="Page-1" id="74e2e168-ea6b-b213-b513-2b3c1d86103e">
    <mxGraphModel dx="1024" dy="539" grid="1" gridSize="10" guides="1" tooltips="1" connect="1" arrows="1" fold="1" page="1" pageScale="1" pageWidth="1100" pageHeight="850" background="#ffffff" math="0" shadow="0">
      <root>
        <mxCell id="0"/>
        <mxCell id="1" parent="0"/>
        <mxCell id="77e6c97f196da883-1" value="Pool" style="swimlane;html=1;childLayout=stackLayout;startSize=20;rounded=0;shadow=0;labelBackgroundColor=none;strokeWidth=1;fontFamily=Verdana;fontSize=8;align=center;" parent="1" vertex="1">
          <mxGeometry x="70" y="40" width="960" height="750" as="geometry"/>
        </mxCell>
        <mxCell id="77e6c97f196da883-2" value="停课" style="swimlane;html=1;startSize=20;fillColor=#d5e8d4;strokeColor=#82b366;" parent="77e6c97f196da883-1" vertex="1">
          <mxGeometry y="20" width="160" height="730" as="geometry"/>
        </mxCell>
        <mxCell id="77e6c97f196da883-8" value="&lt;font style=&quot;font-size: 14px&quot;&gt;单独停课&lt;/font&gt;" style="rounded=1;whiteSpace=wrap;html=1;shadow=0;labelBackgroundColor=none;strokeWidth=1;fontFamily=Verdana;fontSize=8;align=center;fillColor=#f8cecc;strokeColor=#b85450;" parent="77e6c97f196da883-2" vertex="1">
          <mxGeometry x="30" y="100" width="100" height="40" as="geometry"/>
        </mxCell>
        <mxCell id="lE1tMlFI_5QNJBr9iHpu-3" value="&lt;font style=&quot;font-size: 14px&quot;&gt;停场地&lt;/font&gt;" style="rounded=1;whiteSpace=wrap;html=1;shadow=0;labelBackgroundColor=none;strokeWidth=1;fontFamily=Verdana;fontSize=8;align=center;fillColor=#f8cecc;strokeColor=#b85450;" vertex="1" parent="77e6c97f196da883-2">
          <mxGeometry x="30" y="220" width="100" height="40" as="geometry"/>
        </mxCell>
        <mxCell id="lE1tMlFI_5QNJBr9iHpu-4" value="&lt;font style=&quot;font-size: 14px&quot;&gt;停场馆&lt;/font&gt;" style="rounded=1;whiteSpace=wrap;html=1;shadow=0;labelBackgroundColor=none;strokeWidth=1;fontFamily=Verdana;fontSize=8;align=center;fillColor=#f8cecc;strokeColor=#b85450;" vertex="1" parent="77e6c97f196da883-2">
          <mxGeometry x="30" y="340" width="100" height="40" as="geometry"/>
        </mxCell>
        <mxCell id="lE1tMlFI_5QNJBr9iHpu-7" value="&lt;font style=&quot;font-size: 14px&quot;&gt;终止场地时段&lt;/font&gt;" style="rounded=1;whiteSpace=wrap;html=1;shadow=0;labelBackgroundColor=none;strokeWidth=1;fontFamily=Verdana;fontSize=8;align=center;fillColor=#f8cecc;strokeColor=#b85450;" vertex="1" parent="77e6c97f196da883-2">
          <mxGeometry x="30" y="460" width="100" height="40" as="geometry"/>
        </mxCell>
        <mxCell id="77e6c97f196da883-3" value="取消排课/BIG4" style="swimlane;html=1;startSize=20;fillColor=#d5e8d4;strokeColor=#82b366;" parent="77e6c97f196da883-1" vertex="1">
          <mxGeometry x="160" y="20" width="160" height="730" as="geometry"/>
        </mxCell>
        <mxCell id="77e6c97f196da883-16" value="&lt;br&gt;&lt;font style=&quot;font-size: 14px&quot;&gt;无大班&lt;/font&gt;" style="rhombus;whiteSpace=wrap;html=1;rounded=0;shadow=0;labelBackgroundColor=none;strokeWidth=1;fontFamily=Verdana;fontSize=8;align=center;" parent="77e6c97f196da883-3" vertex="1">
          <mxGeometry x="10" y="80" width="50" height="80" as="geometry"/>
        </mxCell>
        <mxCell id="lE1tMlFI_5QNJBr9iHpu-11" value="&lt;br&gt;&lt;font style=&quot;font-size: 14px&quot;&gt;无签到&lt;/font&gt;" style="rhombus;whiteSpace=wrap;html=1;rounded=0;shadow=0;labelBackgroundColor=none;strokeWidth=1;fontFamily=Verdana;fontSize=8;align=center;" vertex="1" parent="77e6c97f196da883-3">
          <mxGeometry x="100" y="80" width="50" height="80" as="geometry"/>
        </mxCell>
        <mxCell id="77e6c97f196da883-5" value="退还课时" style="swimlane;html=1;startSize=20;fillColor=#d5e8d4;strokeColor=#82b366;" parent="77e6c97f196da883-1" vertex="1">
          <mxGeometry x="320" y="20" width="160" height="730" as="geometry"/>
        </mxCell>
        <mxCell id="77e6c97f196da883-7" value="补偿" style="swimlane;html=1;startSize=20;fillColor=#d5e8d4;strokeColor=#82b366;" parent="77e6c97f196da883-1" vertex="1">
          <mxGeometry x="480" y="20" width="160" height="730" as="geometry"/>
        </mxCell>
      </root>
    </mxGraphModel>
  </diagram>
</mxfile>
